<?xml version="1.0" encoding="UTF-8"?>
<svg width="10px" height="10px" viewBox="0 0 10 10" version="1.1" xmlns="http://www.w3.org/2000/svg" xmlns:xlink="http://www.w3.org/1999/xlink">
    <!-- Generator: Sketch 42 (36781) - http://www.bohemiancoding.com/sketch -->
    <title>Artboard 2</title>
    <desc>Created with Sketch.</desc>
    <defs></defs>
    <g id="Page-1" stroke="none" stroke-width="1" fill="none" fill-rule="evenodd">
        <g id="Artboard-2">
            <g id="Group-2">
                <rect id="Rectangle-3" fill="#FF6633" x="0" y="0" width="10" height="10" rx="1.5"></rect>
                <path d="M8.34634107,4.43273267 C8.47996492,4.31037363 8.5304623,4.14917044 8.48190712,4.00078582 C8.4329635,3.85317808 8.29700901,3.75334864 8.11793752,3.73431501 L6.23943484,3.55718573 C6.21340927,3.55330131 6.16019279,3.51523405 6.14776267,3.4903738 L5.37631802,1.7625864 C5.30173727,1.59788724 5.16461745,1.5 5.00924089,1.5 C4.85347588,1.5 4.71635606,1.59788724 4.64138687,1.76297484 L3.85207392,3.4903738 C3.84003223,3.51406873 3.78681576,3.55291287 3.75923642,3.55718573 L1.88345283,3.73392657 C1.70321602,3.75334864 1.56687308,3.85317808 1.5183179,4.00078582 C1.46937429,4.14917044 1.51987167,4.31037363 1.65349552,4.43273267 L3.04838863,5.73983803 C3.06819914,5.75964854 3.08917498,5.82568358 3.08529057,5.85170915 L2.7057833,7.68437574 C2.66655072,7.87354671 2.7263707,8.02193133 2.7714299,8.07709001 C2.88835077,8.22042489 3.10976237,8.2336319 3.29893334,8.12719895 L4.9408752,7.20115462 C4.95058623,7.19610489 5.04886191,7.19571645 5.05973827,7.20115462 L6.70090324,8.12719895 C6.80034424,8.18313452 7.04739298,8.26898007 7.21947253,8.05883327 C7.26414329,8.00406303 7.33328586,7.88364619 7.2952186,7.69719431 L6.91959576,5.77479775 C6.92231485,5.7705249 6.93047212,5.75964854 6.95105951,5.74022647 L8.34634107,4.43273267 Z" id="Fill-1" fill="#FFFFFF"></path>
            </g>
        </g>
    </g>
</svg>